PathFileType	4	(X/Y/Z)	D:\Share\Shared_Data\Ergonomics\Sit To Stand Pertubation\S2\Perturbed.trc
DataRate	CameraRate	NumFrames	NumMarkers	Units	OrigDataRate	OrigDataStartFrame	OrigNumFrames	
100	100	8	18	m	100	11591	261
Frame#	Time	R_Toe			R_ASIS			R_Pelvis			V_Sacral			L_Pelvis			L_ASIS			Clavical			R_Acromium			L_Acromium			Sternum			Torso			R_Thigh_Med			R_Thigh_Lat			R_Thigh			R_Shank_Med			R_Shank_Lat			R_Shank			R_Heel			
		X1	Y1	Z1	X2	Y2	Z2	X3	Y3	Z3	X4	Y4	Z4	X5	Y5	Z5	X6	Y6	Z6	X7	Y7	Z7	X8	Y8	Z8	X9	Y9	Z9	X10	Y10	Z10	X11	Y11	Z11	X12	Y12	Z12	X13	Y13	Z13	X14	Y14	Z14	X15	Y15	Z15	X16	Y16	Z16	X17	Y17	Z17	X18	Y18	Z18	

11591	115.9	0.42718069	0.08903981	0.14951689	0.30554327	1.0204014	0.1363076	0.22881471	1.0273446	0.17834599	0.090164337	1.0364241	0.013752424	0.19624535	1.0392791	-0.16406065	0.29163684	1.0387716	-0.13625044	0.36096854	1.4469087	0.0063376431	0.26715845	1.4744153	0.21431244	0.25350764	1.4925461	-0.1761965	0.3918324	1.2850977	-0.00039550588	0.36561197	1.4109984	-0.10914971	0.34335779	0.50126434	0.098228073	0.32766379	0.52470331	0.18996887	0.36855988	0.69843365	0.16629916	0.29054276	0.11231479	0.11463552	0.27144745	0.095643951	0.2081993	0.30055389	0.373272	0.21985939	0.19359482	0.056196953	0.15155881
11592	115.91	0.42719611	0.088978027	0.14955992	0.30874039	1.0218457	0.13638426	0.23165108	1.028186	0.17827229	0.093074364	1.036803	0.013536584	0.19918271	1.0398066	-0.16408083	0.29457391	1.040073	-0.13635405	0.3601221	1.4490725	0.006459218	0.26572226	1.4755615	0.21447336	0.25214586	1.4938182	-0.17609183	0.39242194	1.2874678	-0.00039970642	0.36507455	1.4131787	-0.10910461	0.34201639	0.50133783	0.097761864	0.3264064	0.52490869	0.18934195	0.36908167	0.69809564	0.16586655	0.29058441	0.11229649	0.1146302	0.27141006	0.095641121	0.20816447	0.29943411	0.37345236	0.21949724	0.19361002	0.056198887	0.15155891
11593	115.92	0.42721921	0.088897491	0.14958319	0.3118985	1.0231685	0.13646315	0.23442633	1.0289285	0.17823549	0.095911568	1.0370502	0.013358503	0.20204562	1.0402115	-0.16407036	0.2975311	1.0412733	-0.13645438	0.35932245	1.4510376	0.0065606127	0.26438647	1.4765403	0.21460127	0.25086365	1.4949238	-0.17600677	0.39299203	1.2896449	-0.00040751985	0.36457352	1.415158	-0.10907172	0.34069537	0.50140207	0.097282768	0.32519974	0.52509161	0.1886888	0.36960236	0.69773456	0.16539116	0.29062363	0.11226511	0.11460103	0.27138409	0.095646729	0.20811313	0.2983714	0.37361865	0.21912019	0.1936284	0.056199898	0.15155473
11594	115.93	0.42724823	0.088802719	0.14958856	0.31497696	1.0243727	0.1365401	0.23714423	1.0295773	0.17823375	0.098677383	1.03717	0.013219398	0.20482617	1.040511	-0.16403931	0.3005004	1.0423832	-0.13655124	0.35857346	1.4528186	0.0066418099	0.26315173	1.477371	0.21469687	0.24966377	1.4958713	-0.17594237	0.39354257	1.2916389	-0.00041832864	0.36410852	1.4169452	-0.10905321	0.33939905	0.50146817	0.096798782	0.32403571	0.52525574	0.18801215	0.37012314	0.69734894	0.16487373	0.29066113	0.11222202	0.11454694	0.27136603	0.095659492	0.20804306	0.29735599	0.37377524	0.21872635	0.19364815	0.056201717	0.15154655
11595	115.94	0.42728256	0.08869664	0.14957944	0.3179436	1.025463	0.13661037	0.23981114	1.0301392	0.17826158	0.10137313	1.0371692	0.013119856	0.20751561	1.0407238	-0.1639986	0.30343613	1.043402	-0.13664687	0.35787885	1.4544291	0.0067045035	0.2620192	1.4780731	0.21476357	0.24854951	1.4966696	-0.17589783	0.3940741	1.2934596	-0.00043123573	0.36368015	1.4185499	-0.10904903	0.33814178	0.50154984	0.096326553	0.32290619	0.5254046	0.1873205	0.37064468	0.69693835	0.16431924	0.29069846	0.11216916	0.11447014	0.27135373	0.09567878	0.20795569	0.29637692	0.37392569	0.21831735	0.19366797	0.056205658	0.15153477
11596	115.95	0.42732208	0.088580414	0.14956061	0.32078928	1.0264463	0.13667	0.24243416	1.0306222	0.17831154	0.10399988	1.0370554	0.013060447	0.21010606	1.0408673	-0.16395688	0.30627612	1.0443256	-0.13674554	0.35724063	1.4558807	0.0067514887	0.26099033	1.4786652	0.2148071	0.24752379	1.4973278	-0.17587083	0.3945874	1.2951157	-0.00044527021	0.36328894	1.419981	-0.10905688	0.33694873	0.50166171	0.095889854	0.32180634	0.52554077	0.1866274	0.37116891	0.69650293	0.16373763	0.29073834	0.11210904	0.11437605	0.27134628	0.095704155	0.20785568	0.2954263	0.37407196	0.21789967	0.19368744	0.056212345	0.15152005
11597	115.96	0.42736731	0.088453011	0.14953804	0.32352289	1.0273298	0.13671541	0.24502013	1.0310338	0.17837619	0.10655803	1.0368373	0.013041691	0.21259175	1.0409557	-0.1639185	0.30896793	1.0451528	-0.13685188	0.35665982	1.4571843	0.0067854295	0.26006656	1.4791624	0.21483412	0.24658801	1.4978578	-0.17585736	0.39508334	1.2966161	-0.0004601115	0.36293506	1.421248	-0.10907359	0.33585117	0.50181644	0.095515266	0.3207374	0.52566632	0.18595006	0.37169861	0.69604437	0.16314485	0.29078448	0.11204469	0.11427272	0.27134341	0.095734558	0.20774937	0.29450195	0.37421411	0.21748352	0.19370679	0.056221878	0.15150299
11598	115.97	0.42741989	0.088309311	0.1495186	0.32616125	1.0281183	0.13674321	0.24757466	1.0313804	0.17844992	0.1090477	1.0365262	0.013063634	0.21497011	1.0409978	-0.16388445	0.31148505	1.0458846	-0.13696973	0.35613727	1.4583467	0.0068080683	0.25924899	1.479576	0.21485078	0.24574106	1.498272	-0.17585265	0.39556403	1.2979681	-0.00047624052	0.36261807	1.4223608	-0.10909667	0.33487482	0.50201862	0.095224213	0.31970721	0.52578131	0.18530571	0.3722366	0.69556635	0.16256236	0.29084277	0.11197923	0.11416978	0.27134586	0.095767998	0.20764354	0.29360791	0.3743504	0.21708008	0.19372705	0.056234615	0.15148441
